<?xml version="1.0" encoding="utf-8"?>
<!-- Generator: Adobe Illustrator 19.0.0, SVG Export Plug-In . SVG Version: 6.00 Build 0)  -->
<svg version="1.1" id="Layer_1" xmlns="http://www.w3.org/2000/svg" xmlns:xlink="http://www.w3.org/1999/xlink" x="0px" y="0px"
	 viewBox="-221 371.8 168.2 51.2" style="enable-background:new -221 371.8 168.2 51.2;" xml:space="preserve">
<g id="XMLID_1_">
	<path id="XMLID_68_" d="M-195.8,396.5c-2.6-0.8-5.2-1-7.9-0.8c-0.9,0.1-1.9,0.2-3,0.3c0.2-1.8,0.3-3.5,0.6-5.2
		c0.1-0.8,0.2-0.8,1.1-0.8c4.3,0,8.5,0.1,12.8,0.1c0.7,0,0.9-0.1,0.9-0.8c0.2-2,0.2-4,0.5-6c0.1-1-0.3-1.5-1-2
		c-0.6-0.4-1.3-0.6-2.1-0.6c-2.5,0.1-4.9,0.3-7.4,0.4c-4,0.2-7.9,0.4-11.9,0.7c-0.8,0-1.6,0.1-2.4,0.1c-0.5,3.2-1.1,6.4-1.6,9.6
		c-0.3,1.9-0.4,3.8-0.6,5.6c0.1,1.3,0.1,2.6,0.2,3.9c0.1,0.8,0.6,1.3,1.4,1.6c0.4,0.1,0.7,0.3,1.1,0.4c2.9,0.5,5.8,1,8.7,1.5
		c0.3,0.1,0.5,0.2,0.8,0.3c1.2,0.4,2.4,0.9,3,2.2l0.1,0.1l0,0c0,0.3,0.1,0.7,0.1,1c0.1,2.1-1.2,3.8-3.4,4.5
		c-2.1,0.6-4.1,0.3-6.1-0.6c-2-0.9-4-1.8-6.1-2.7c-0.8-0.3-1.1-0.3-1.5,0.4c-0.3,0.5-0.5,1-0.7,1.5c-0.2,0.4-0.2,0.8-0.4,1.1
		c0,0.7,0,1.5,0,2.2c0.1,0.6,0.2,1.1,0.4,1.7c0.9,2.9,2.8,4.8,5.9,5.3c1.6,0.3,3.3,0.4,4.9,0.6c0.1,0,0.2,0.1,0.3,0.1
		c0.8,0,1.6,0,2.5,0c0.1,0,0.2-0.1,0.2-0.1c1.3-0.1,2.6-0.2,3.8-0.4c3-0.5,5.8-1.3,8.4-2.9c1.6-1,3-2.2,4-3.9c0.3-0.5,0.6-1,0.8-1.6
		c1-2.8,1.2-5.6,0.7-8.5C-189.2,400.7-191.7,397.9-195.8,396.5z"/>
	<path id="XMLID_99_" d="M-154.6,413.4c-0.7-2.2-2.2-3.3-4.5-3.2c-1.2-0.1-2.5-0.2-3.7-0.4c-0.7,0-1.4-0.1-2.1-0.1
		c-0.2,0-0.4,0-0.7,0c-1.2-0.1-2.3-0.2-3.5-0.3c-0.5,0-1-0.1-1.5-0.1c-0.1-0.8,0.4-1,0.9-1.2c0.7-0.3,1.5-0.6,2.2-1
		c1.6-0.9,3.1-1.8,4.7-2.6c2.7-1.7,5.2-3.6,7.2-6c2.1-2.5,3-5.5,2.5-8.8c-0.6-3.9-3-6.3-6.7-7.5c-2.7-0.8-5.4-0.8-8.2-0.5
		c-2.8,0.3-5.5,1.3-8.1,2.5c-0.5,0.2-1,0.5-1.5,0.7c-0.9,0.5-1.7,0.9-2.6,1.4c-1,0.5-1.9,1-2.9,1.6c0.9,2.4,1.8,4.8,2.7,7.1
		c1.3-0.4,2.6-0.8,3.8-1.2c0.3-0.1,0.7-0.2,1-0.3c0.7-0.2,1.4-0.4,2.1-0.6c0.9-0.2,1.7-0.5,2.6-0.7c0.9-0.2,1.8-0.5,2.7-0.7
		c0.6-0.1,1.2-0.3,1.6,0.2c0.4,0.5,0,1.1-0.3,1.5c-0.6,0.7-1.3,1.4-1.9,2.1c-0.3,0.3-0.6,0.5-1,0.8c-0.2,0.2-0.4,0.4-0.7,0.5
		c-1.2,0.9-2.3,1.8-3.5,2.6c-1.7,1.1-3.4,2.1-5.1,3.2c-1.1,0.9-2.1,1.7-3.2,2.6c-1.5,1.4-2.8,3.1-3.7,5c-0.1,0.3-0.2,0.6-0.2,0.9
		c-0.1,2.3-0.1,4.5-0.2,6.8c0,0.6,0,1.2,0,2c1.4,0.2,2.7,0.5,4.1,0.7c1.6,0.2,3.2,0.3,4.8,0.5c1.6,0,3.2,0.1,4.8,0.1
		c1.8,0,3.5,0,5.3-0.1c1.2,0,2.4-0.2,3.7-0.2c0.4,0,0.7,0,1.1-0.1c1.2-0.1,2.4-0.3,3.6-0.4c1-0.2,2-0.3,3.1-0.5
		c0.9-0.1,1.7-0.3,2.7-0.4c-0.1-0.9-0.2-1.7-0.3-2.4C-154,415.6-154.2,414.5-154.6,413.4z"/>
</g>
<g id="XMLID_2_">
	<path id="XMLID_4_" d="M-142.3,393.7c-0.1,1.9-0.3,3.9-0.6,6.2c-0.3,2.2-0.6,4.6-0.8,7c0,1.2,0,2.2,0,2.9s0.1,1.4,0,2
		c-0.7,0.1-1.2,0.1-1.6,0s-0.7-0.3-1-0.5c0-0.6,0.1-1.7,0.2-3.1s0.3-3,0.5-4.7c0.2-1.7,0.4-3.3,0.5-4.9c0.2-1.6,0.3-2.9,0.4-3.8
		c0.2-0.1,0.3-0.2,0.5-0.4c0.1-0.2,0.3-0.3,0.4-0.4c0.1-0.1,0.3-0.2,0.6-0.3C-142.9,393.6-142.7,393.6-142.3,393.7z M-141.2,386.1
		c0.4-0.1,0.6,0.2,0.6,0.7s-0.2,1-0.5,1.2c-0.5,0.4-0.9,0.7-1,0.9c-0.2,0.3-0.5,0.4-1,0.5c-0.2,0-0.5,0-0.7,0c-0.2,0-0.3-0.3-0.3-1
		c0.2-0.4,0.6-0.9,1-1.3C-142.6,386.7-142,386.4-141.2,386.1z"/>
	<path id="XMLID_7_" d="M-135.5,394c-0.2,1.1-0.4,2.2-0.6,3.3c-0.2,1.1-0.4,2.1-0.6,3.2c-0.2,1-0.4,2-0.6,2.9
		c-0.2,0.9-0.3,1.7-0.5,2.4c0-0.2,0.2-0.5,0.5-1.1c0.3-0.6,0.7-1.3,1.2-2.1c0.5-0.8,1-1.6,1.5-2.5c0.6-0.9,1.1-1.7,1.7-2.3
		c0.6-0.7,1.2-1.2,1.7-1.6c0.6-0.4,1-0.5,1.4-0.4c0.9,0.4,1.4,1,1.7,1.7c0.3,0.7,0.4,1.6,0.4,2.5c0,1,0,2,0,3.2
		c0,1.2,0.1,2.4,0.5,3.7c0.2,0.6,0.4,1,0.9,1.3c0.4,0.3,0.9,0.5,1.3,0.6s0.8,0.2,1,0.2c0.3,0,0.4,0.1,0.3,0.2
		c-1.2,0.7-2.1,1-2.9,0.8c-0.7-0.2-1.3-0.8-1.7-1.5c-0.4-0.8-0.7-1.8-0.8-2.9c-0.1-1.1-0.3-2.2-0.4-3.2s-0.2-1.9-0.3-2.6
		c-0.1-0.7-0.3-1.1-0.5-1.1c-0.4,0-0.9,0.4-1.4,1c-0.6,0.6-1.1,1.4-1.8,2.3c-0.6,0.9-1.2,2-1.9,3.1c-0.6,1.1-1.2,2.2-1.7,3.1
		c-0.5,1-1,1.8-1.3,2.5s-0.5,1.1-0.6,1.3c-0.6,0-1,0-1.2,0.1c-0.2,0-0.4-0.2-0.6-0.6c0.8-3.4,1.4-6.7,1.9-9.7c0.5-3.1,0.8-5.7,1.1-8
		c0.1-0.4,0.2-0.5,0.4-0.5c0.2,0,0.4,0.1,0.6,0.2c0.2,0.2,0.4,0.3,0.6,0.5C-135.8,393.9-135.6,394-135.5,394z"/>
	<path id="XMLID_9_" d="M-114.7,400.4c0.9,0.2,1.8,0.4,2.6,0.5c0.8,0.1,1.5,0.2,2.3,0.3s1.6,0.2,2.6,0.3c0.9,0.1,2.1,0.2,3.3,0.3
		c0.3,0.4,0.5,0.7,0.6,1s0.2,0.7,0.3,1.2c-1.3-0.2-2.5-0.4-3.6-0.5c-1.1-0.1-2.2-0.2-3.2-0.3c-1.1-0.1-2.2-0.1-3.3-0.2
		c-1.1-0.1-2.4-0.1-3.8-0.3c-0.4,2-0.6,3.8-0.8,5.3c-0.1,1.5-0.4,2.9-0.7,4.2c-0.3,0-0.5,0-0.6-0.1c-0.1-0.1-0.2-0.3-0.3-0.4
		c-0.1-0.2-0.2-0.3-0.3-0.5c-0.1-0.2-0.3-0.3-0.5-0.4c1.1-5.4,1.9-10.3,2.5-14.9c0.6-4.5,1.3-8.8,2.1-13c0.1-0.8,0.3-1.7,0.5-2.7
		s0.4-2,0.5-2.9c0.2-1,0.3-1.8,0.4-2.6s0.1-1.3,0-1.5c0.3-0.3,0.7-0.5,1-0.6s0.8-0.1,1.5-0.2c-0.7,4.8-1.5,9.5-2.4,14.1
		c-0.9,4.6-1.6,9-2.3,13.2c0.8-0.5,1.7-1.1,2.6-1.9c0.9-0.7,1.8-1.5,2.6-2.2c0.8-0.7,1.5-1.3,2.1-1.8s1-0.8,1.1-0.8
		c0.3,0.3,0.7,0.6,1,0.8c0.4,0.2,0.6,0.3,0.6,0.3c-1.2,1.1-2.5,2.3-3.9,3.5C-111.6,398.7-113.1,399.7-114.7,400.4z"/>
	<path id="XMLID_11_" d="M-101.1,393.7c-0.1,1.9-0.3,3.9-0.6,6.2c-0.3,2.2-0.6,4.6-0.8,7c0,1.2,0,2.2,0,2.9s0.1,1.4,0,2
		c-0.7,0.1-1.2,0.1-1.6,0s-0.7-0.3-1-0.5c0-0.6,0.1-1.7,0.2-3.1s0.3-3,0.5-4.7c0.2-1.7,0.4-3.3,0.5-4.9c0.2-1.6,0.3-2.9,0.4-3.8
		c0.2-0.1,0.3-0.2,0.5-0.4c0.1-0.2,0.3-0.3,0.4-0.4c0.1-0.1,0.3-0.2,0.6-0.3C-101.7,393.6-101.5,393.6-101.1,393.7z M-100,386.1
		c0.4-0.1,0.6,0.2,0.6,0.7s-0.2,1-0.5,1.2c-0.5,0.4-0.9,0.7-1,0.9c-0.2,0.3-0.5,0.4-1,0.5c-0.2,0-0.5,0-0.7,0s-0.3-0.3-0.3-1
		c0.2-0.4,0.6-0.9,1-1.3C-101.4,386.7-100.8,386.4-100,386.1z"/>
	<path id="XMLID_14_" d="M-88.1,394.7c0,0.2-0.2,0.5-0.7,0.7c-0.5,0.2-1.1,0.6-1.9,1c-0.8,0.4-1.6,1-2.5,1.8
		c-0.9,0.7-1.8,1.7-2.7,2.9c-0.9,1.3-1.6,2.5-2.1,3.4c-0.5,1-0.6,2.1-0.4,3.4c0.1,0.3,0.2,0.5,0.4,0.7c0.2,0.2,0.5,0.3,1,0.4
		c1-0.2,1.8-0.4,2.6-0.6c0.8-0.3,1.5-0.6,2.2-1s1.4-0.8,2.1-1.3c0.7-0.4,1.4-0.9,2.1-1.4c1.1-0.8,2-1.5,2.7-2.1
		c0.7-0.6,1.3-1.1,1.8-1.5c0.5-0.4,0.8-0.7,1.1-0.9c0.3-0.2,0.6-0.3,0.9-0.2c-0.2,0.4-0.8,1.1-1.8,2.2c-1,1.1-2.2,2.3-3.7,3.6
		s-3.1,2.5-5,3.6c-1.8,1.1-3.7,1.8-5.7,2.1c-0.8,0-1.4-0.1-1.8-0.2c-0.5-0.1-0.8-0.6-1.1-1.4c-0.3-1-0.3-2.2,0-3.5
		c0.4-1.4,0.9-2.8,1.7-4.1c0.7-1.4,1.6-2.6,2.6-3.8c1-1.2,1.9-2,2.7-2.6c1.1-0.7,2.1-1.1,3-1.2C-89.8,394.6-88.9,394.6-88.1,394.7z"
		/>
	<path id="XMLID_16_" d="M-81.8,400.4c0.9,0.2,1.8,0.4,2.6,0.5s1.5,0.2,2.3,0.3s1.6,0.2,2.6,0.3c0.9,0.1,2.1,0.2,3.3,0.3
		c0.3,0.4,0.5,0.7,0.6,1s0.2,0.7,0.3,1.2c-1.3-0.2-2.5-0.4-3.6-0.5c-1.1-0.1-2.2-0.2-3.2-0.3c-1.1-0.1-2.2-0.1-3.3-0.2
		c-1.1-0.1-2.4-0.1-3.8-0.3c-0.4,2-0.6,3.8-0.8,5.3c-0.1,1.5-0.4,2.9-0.7,4.2c-0.3,0-0.5,0-0.6-0.1c-0.1-0.1-0.2-0.3-0.3-0.4
		c-0.1-0.2-0.2-0.3-0.3-0.5c-0.1-0.2-0.3-0.3-0.5-0.4c1.1-5.4,1.9-10.3,2.5-14.9c0.6-4.5,1.3-8.8,2.1-13c0.1-0.8,0.3-1.7,0.5-2.7
		s0.4-2,0.5-2.9c0.2-1,0.3-1.8,0.4-2.6c0.1-0.8,0.1-1.3,0-1.5c0.3-0.3,0.7-0.5,1-0.6s0.8-0.1,1.5-0.2c-0.7,4.8-1.5,9.5-2.4,14.1
		c-0.9,4.6-1.6,9-2.3,13.2c0.8-0.5,1.7-1.1,2.6-1.9c0.9-0.7,1.8-1.5,2.6-2.2c0.8-0.7,1.5-1.3,2.1-1.8s1-0.8,1.1-0.8
		c0.3,0.3,0.7,0.6,1,0.8c0.4,0.2,0.6,0.3,0.6,0.3c-1.2,1.1-2.5,2.3-3.9,3.5C-78.7,398.8-80.2,399.7-81.8,400.4z"/>
	<path id="XMLID_18_" d="M-63.4,393.4c1,0.2,1.9,0.4,2.5,0.6c0.7,0.3,1.1,0.6,1.5,0.9c0.3,0.3,0.6,0.7,0.8,1c0.2,0.4,0.3,0.7,0.5,1
		c-0.1,0.2-0.3,0.1-0.6-0.1s-0.6-0.4-0.9-0.6c-0.8-0.5-1.9-0.9-3.2-1s-2.5,0-3.7,0.2c-1.2,0.3-2.1,0.7-2.9,1.3
		c-0.8,0.6-1.1,1.4-0.9,2.3c0.2,0.9,0.7,1.7,1.4,2.3c0.8,0.7,1.6,1.3,2.6,1.8s1.9,1,2.9,1.4c1,0.4,1.8,0.9,2.4,1.3
		c0.9-0.4,1.7-0.8,2.3-1.1c0.6-0.3,1.2-0.6,1.7-0.8c0.5-0.3,1-0.5,1.5-0.7c0.5-0.2,1.1-0.5,1.8-0.7c0.1,0,0.2-0.1,0.2-0.1
		c0.1,0,0.1,0,0,0.1c-0.1,0.1-0.3,0.3-0.6,0.5c-0.3,0.2-0.8,0.5-1.5,0.9c-0.3,0.2-0.9,0.5-1.8,1c-0.9,0.5-1.8,1-2.9,1.5
		c0.4,0.4,0.8,0.9,1,1.3s0.3,0.9,0.3,1.4s-0.2,1-0.5,1.5c-1.1,1.2-2.2,2.2-3.4,2.9c-1.2,0.7-2.2,1.2-3.2,1.5c-0.6,0.2-1.3,0.2-2,0.1
		c-0.7-0.2-1.2-0.5-1.6-0.9c-0.4-0.6-0.4-1.3,0-1.9c0.3-0.6,0.8-1.3,1.5-1.9s1.4-1.2,2.2-1.7s1.5-1,2.2-1.5c-0.3-0.4-1-0.9-2-1.4
		c-1-0.6-2-1.2-3.1-1.9c-1-0.7-2-1.4-2.8-2.2c-0.8-0.8-1.2-1.6-1.1-2.3c0-0.9,0.2-1.7,0.8-2.5c0.5-0.8,1.3-1.5,2.1-2.1
		c0.9-0.6,1.9-1.1,3-1.3C-65.6,393.3-64.5,393.3-63.4,393.4z M-67.4,413.5c0.4,0.2,1,0.2,1.6,0c0.6-0.2,1.2-0.5,1.8-0.8
		c0.6-0.4,1.1-0.8,1.6-1.2c0.5-0.4,0.8-0.8,1-1.2c0.2-0.3,0.1-0.7-0.2-1c-0.3-0.4-0.6-0.7-1-0.9c-0.5,0.3-1.1,0.7-1.8,1.2
		s-1.3,1-1.8,1.5s-0.9,1-1.2,1.5C-67.6,412.9-67.7,413.3-67.4,413.5z"/>
</g>
</svg>
