<?xml version="1.0" encoding="utf-8"?>
<!-- Generator: Adobe Illustrator 19.0.0, SVG Export Plug-In . SVG Version: 6.00 Build 0)  -->
<svg version="1.1" id="Layer_1" xmlns="http://www.w3.org/2000/svg" xmlns:xlink="http://www.w3.org/1999/xlink" x="0px" y="0px"
	 viewBox="-221 371.8 122.7 51.2" style="enable-background:new -221 371.8 122.7 51.2;" xml:space="preserve">
<path d="M-107.1,386.6l-12.6,14.9l-12.6-14.9l-37.4,0c-1.8,0-3.2,1.5-3.2,3.2v6.5c0,1.8,1.5,3.2,3.2,3.2h29.4c0.3,0,0.6,0.3,0.6,0.6
	v1.7c0,0.3-0.3,0.6-0.6,0.6l-32.7,0v5h35.1c1.8,0,3.2-1.5,3.2-3.2v-6.5c0-1.8-1.5-3.2-3.2-3.2h-29.4c-0.3,0-0.6-0.3-0.6-0.6v-1.7
	c0-0.3,0.3-0.6,0.6-0.6h32.7l0,0l13.4,15.8h3.1l17.7-20.9H-107.1z"/>
<g>
	<path d="M-193.6,422L-193.6,422c-1.1,0-2.7-0.3-4.4-1.7c-1.2-1-6.1-5.3-10.1-8.8c-3.1-2.8-8.1-7.3-9.1-8.3l0,0
		c-1-1-2.8-2.9-2.8-5.9l0,0c0-3,1.8-4.9,2.8-5.9c1-1.1,6-5.6,9.1-8.3c3.8-3.4,8.9-7.8,10.1-8.8c1.1-0.9,2.5-1.5,3.8-1.6
		c0.2,0,0.4,0,0.5,0c1.6,0,3.2,0.6,4.4,1.8c1.2,1.1,1.9,2.6,2,4.2c0.1,1.1-0.1,2.9-1.5,4.7l0,0c-0.4,0.5-1.4,1.8-3.1,3.7l-0.3,0.4
		c-1.9,2.3-4.3,5.2-5.3,6.5c-1.1,1.4-1.9,2.5-2.4,3.2c-0.1,0.2-0.1,0.4,0,0.5c0.5,0.7,1.3,1.8,2.4,3.2c1,1.3,3.5,4.2,5.4,6.6
		l0.2,0.2c1.7,2,2.7,3.3,3.1,3.7c1.4,1.8,1.6,3.5,1.5,4.7c-0.1,1.6-0.8,3.1-1.9,4.2l0,0c-1.1,1-2.4,1.6-3.9,1.8
		C-193.3,422-193.4,422-193.6,422L-193.6,422z M-193.6,377.6c0,0-0.1,0-0.1,0c-0.3,0-0.7,0.2-1,0.5c-1.2,1-6.2,5.3-10,8.7
		c-3.8,3.4-8.1,7.3-8.8,8.1c-0.8,0.8-1.4,1.5-1.4,2.4v0c0,0.9,0.6,1.6,1.4,2.4l0,0c0.7,0.8,5,4.6,8.8,8.1c3.9,3.5,8.8,7.7,10,8.7
		c0.5,0.4,0.9,0.5,1.1,0.5c0,0,0.1,0,0.1,0c0.3,0,0.6-0.2,0.8-0.4l0,0c0.2-0.2,0.4-0.5,0.4-0.8c0-0.3-0.1-0.7-0.5-1.3
		c-0.3-0.4-1.7-2.1-3-3.6l-0.2-0.2c-2-2.4-4.4-5.3-5.5-6.7c-1.8-2.2-3-4-3.6-5.2c-0.5-0.9-0.5-2,0-2.9c0.6-1.2,1.9-2.9,3.6-5.2
		c1.1-1.4,3.5-4.3,5.4-6.6l0.3-0.4c1.2-1.5,2.6-3.1,3-3.6c0.4-0.6,0.5-1,0.5-1.3c0-0.3-0.2-0.6-0.4-0.9
		C-193,377.8-193.3,377.6-193.6,377.6z"/>
</g>
</svg>
