<?xml version="1.0" encoding="utf-8"?>
<!-- Generator: Adobe Illustrator 19.0.0, SVG Export Plug-In . SVG Version: 6.00 Build 0)  -->
<svg version="1.1" id="Layer_1" xmlns="http://www.w3.org/2000/svg" xmlns:xlink="http://www.w3.org/1999/xlink" x="0px" y="0px"
	 viewBox="-221 371.8 114 25.6" style="enable-background:new -221 371.8 114 25.6;" xml:space="preserve">
<g>
	<path d="M-197,384.2c-1.1-1.4-2.9-2.2-5.6-2.3h-6.6c-1.1,0-1.9,0-2.4-0.1c-0.5-0.1-0.8-0.5-0.9-1.3c0.4-0.6,0.8-1,1.3-1.1
		c0.5-0.1,1.2-0.1,2.1-0.1h13.5l0.6-6.4h-14.4c-3,0.1-5.2,0.8-6.6,1.9c-1.4,1.2-2.3,3-2.8,5.6c-0.2,2.4,0.2,4.3,1.4,5.7
		c1.2,1.4,3.2,2.1,6,2.1h6.4c1.3,0,2.3,0.1,2.8,0.2c0.6,0.1,0.9,0.5,1,1.2c-0.2,0.9-0.7,1.3-1.3,1.4c-0.6,0.1-1.6,0.1-2.8,0.1h-14
		l-0.6,6.3h14.8c3.1,0,5.3-0.7,6.7-1.8c1.4-1.2,2.2-3,2.6-5.5C-195.5,387.5-195.9,385.6-197,384.2z"/>
	<path d="M-163.3,372.8c-0.7,0.1-1.2,0.4-1.7,0.9l-16.8,16.8l-4.1,0c-1.5-0.2-2.3-1-2.3-2.4l1.5-15.2h-7.4l-1.6,15.4
		c-0.6,5.9,1.7,8.9,7,9.2h16.9l0.6-6.9l-5.9,0l11.7-11.7v16.8c0,1.2,0.6,1.8,1.8,1.8c1.2,0,1.8-0.6,1.8-1.8v-20.8v-0.3
		C-161.6,373.4-162.2,372.8-163.3,372.8z"/>
	<path d="M-135.9,373.4c-0.8-0.8-1.7-0.8-2.5,0l-9.9,9.9h-8v-8.8c0-1.2-0.6-1.8-1.8-1.8c-1.2,0-1.8,0.6-1.8,1.8v21.1
		c0,1.2,0.6,1.8,1.8,1.8c1.2,0,1.8-0.6,1.8-1.8v-8.8h8l9.9,9.9c0.8,0.8,1.6,0.8,2.5,0c0.8-0.8,0.8-1.7,0-2.5l-9.2-9.2l9.2-9.2
		C-135.1,375.1-135.1,374.3-135.9,373.4z"/>
	<path d="M-131.8,376.3h21.1c1.2,0,1.8-0.6,1.8-1.8c0-1.2-0.6-1.8-1.8-1.8h-21.1c-1.2,0-1.8,0.6-1.8,1.8
		C-133.5,375.7-132.9,376.3-131.8,376.3z"/>
	<path d="M-110.7,393.9h-21.1c-1.2,0-1.8,0.6-1.8,1.8c0,1.2,0.6,1.8,1.8,1.8h21.1c1.2,0,1.8-0.6,1.8-1.8
		C-108.9,394.5-109.5,393.9-110.7,393.9z"/>
	<path d="M-110.7,383.3h-21.1c-1.2,0-1.8,0.6-1.8,1.8c0,1.2,0.6,1.8,1.8,1.8h21.1c1.2,0,1.8-0.6,1.8-1.8
		C-108.9,383.9-109.5,383.3-110.7,383.3z"/>
</g>
</svg>
