<?xml version="1.0" encoding="utf-8"?>
<!-- Generator: Adobe Illustrator 19.0.0, SVG Export Plug-In . SVG Version: 6.00 Build 0)  -->
<svg version="1.1" id="ea365998-1ab6-470d-8188-82a060f4e8c3"
	 xmlns="http://www.w3.org/2000/svg" xmlns:xlink="http://www.w3.org/1999/xlink" x="0px" y="0px" viewBox="90 108.3 791.5 576.7"
	 style="enable-background:new 90 108.3 791.5 576.7;" xml:space="preserve">
<style type="text/css">
	.st0{fill:#FFFFFF;}
	.st1{fill:#333333;}
	.st2{fill:#222222;}
	.st3{fill:#444444;}
</style>
<title>AUS_footer</title>
<path d="M121.4,621.9c-0.3-0.5-0.9-0.9-1.5-1H119c-0.6,0.1-1.2,0.5-1.5,1l-27.3,59.8c-0.4,0.8-0.1,1.7,0.6,2.1
	c0.3,0.1,0.6,0.2,0.9,0.2h5.6c0.9,0,1.7-0.5,2-1.3c1.8-4.1,3.6-8.1,5.4-12.2h29.1l5.5,12.2c0.3,0.8,1.1,1.3,2,1.3h5.7
	c0.9,0,1.6-0.6,1.7-1.5c0-0.3,0-0.6-0.2-0.8L121.4,621.9z M108.2,662.9l10.8-24.3h0.4l10.9,24.3H108.2z"/>
<path d="M209.4,621.9h-6c-0.9,0-1.7,0.7-1.7,1.7c0,0,0,0,0,0v36.9c0,8.8-5.8,15.6-14.9,15.6c-9.1,0-14.7-6.9-14.7-15.8v-36.7
	c0-0.9-0.7-1.7-1.7-1.7c0,0,0,0,0,0h-6c-0.9,0-1.7,0.8-1.7,1.7v37.3c0,13.5,10.1,24.1,24.1,24.1s24.3-10.6,24.3-24.1v-37.3
	C211,622.7,210.3,622,209.4,621.9z"/>
<path d="M249.8,648.2c-7.4-3-11.3-6.1-11.3-11.2c0-3.3,2.6-8,10-8c5.2,0,11.4,4.1,12,4.4c0.9,0.7,2.2,0.4,2.9-0.5
	c0.1-0.1,0.2-0.3,0.2-0.4c0.7-1.1,1.5-2.3,2.2-3.4c0.7-0.9,0.5-2.2-0.4-2.9c0,0-0.1-0.1-0.1-0.1c-4.9-3.3-10.5-5.1-16.4-5.2
	c-14.1,0-19.5,9.5-19.5,16.4c0,10.3,7.1,15,16.2,18.8c8.8,3.6,13.4,7,13.4,12.4c0,4.5-3.9,8.3-10,8.3c-6.8,0-13.7-5.7-14.2-6.1
	c-1-0.8-2.2-0.4-3,0.7c-0.8,1.2-1.5,2.5-2.3,3.6c-0.9,1.5-0.3,2.1,0.5,2.8c5.3,4.6,12.1,7,19.1,7c11.6,0,19.8-7.5,19.8-16.8
	C268.9,657.3,260.1,652.4,249.8,648.2z"/>
<path d="M330.4,621.9h-44.7c-0.9,0-1.7,0.7-1.7,1.7c0,0,0,0,0,0v5c0,0.9,0.7,1.7,1.7,1.7c0,0,0,0,0,0h17.7v52.2
	c0,0.9,0.8,1.7,1.7,1.7h5.9c0.9,0,1.7-0.8,1.7-1.7v-52.2h17.7c0.9,0,1.7-0.7,1.7-1.7c0,0,0,0,0,0v-5
	C332.1,622.7,331.3,621.9,330.4,621.9C330.4,621.9,330.4,621.9,330.4,621.9z"/>
<path d="M395.3,640.9c-0.1-10.6-8.7-19.1-19.3-19c0,0-0.1,0-0.1,0h-24.2c-0.9,0-1.7,0.7-1.7,1.7c0,0,0,0,0,0v58.8
	c0,0.9,0.7,1.7,1.7,1.7c0,0,0,0,0,0h5.8c0.9,0,1.7-0.8,1.7-1.7v-22.7h13.4l11.8,23.5c0.3,0.5,0.8,0.8,1.4,0.8h6.9
	c0.9,0,1.7-0.7,1.8-1.6c0-0.3-0.1-0.7-0.3-1L382,658.8C389.8,655.8,395.3,649,395.3,640.9z M375.2,652.1h-15.8v-21.6h15.8
	c5.9,0,10.7,4.7,10.8,10.6C385.9,647.1,381.1,652,375.2,652.1z"/>
<path d="M441.5,621.9c-0.3-0.5-0.9-0.9-1.5-1h-0.9c-0.6,0.1-1.2,0.5-1.5,1l-27.3,59.8c-0.4,0.8-0.1,1.7,0.6,2.1
	c0.3,0.1,0.6,0.2,0.9,0.2h5.6c0.9,0,1.7-0.5,2-1.3c1.8-4.1,3.6-8.1,5.4-12.2h29.1l5.5,12.2c0.3,0.8,1.1,1.3,2,1.3h5.6
	c0.9,0,1.6-0.6,1.7-1.5c0-0.3,0-0.6-0.2-0.8L441.5,621.9z M428.3,662.9l10.8-24.3h0.4l10.9,24.3H428.3z"/>
<path d="M522.3,675.8h-26.5v-52.3c0-0.9-0.8-1.7-1.7-1.7h-5.9c-0.9,0-1.7,0.7-1.7,1.7c0,0,0,0,0,0v58.8c0,0.9,0.7,1.7,1.7,1.7
	c0,0,0,0,0,0h34.1c0.9,0,1.7-0.7,1.7-1.7c0,0,0,0,0,0v-4.9C523.9,676.5,523.2,675.8,522.3,675.8z"/>
<path d="M549.3,621.9h-5.9c-0.9,0-1.7,0.8-1.7,1.7v58.8c0,0.9,0.8,1.7,1.7,1.7h5.9c0.9,0,1.7-0.8,1.7-1.7v-58.8
	C550.9,622.7,550.2,621.9,549.3,621.9z"/>
<path d="M648.2,672.6c3.4,0,6.2,2.7,6.2,6.1c0,3.4-2.7,6.2-6.1,6.2c-3.4,0-6.2-2.7-6.2-6.1c-0.1-3.3,2.5-6.1,5.8-6.2
	C648,672.6,648.1,672.6,648.2,672.6z"/>
<path d="M697.8,621c9,0,15.5,3,21.5,8.3c0.7,0.6,0.8,1.6,0.2,2.4c0,0.1-0.1,0.1-0.1,0.1l-3.9,4c-0.6,0.8-1.4,0.8-2.2,0
	c-4.3-3.7-9.7-5.8-15.4-6c-12.7,0-22.3,10.7-22.3,23.1s9.7,23,22.4,23c6.5,0,11-2.6,15.3-5.9c0.6-0.5,1.5-0.6,2.1-0.1l4.1,4
	c0.6,0.7,0.6,1.8-0.1,2.4c-5.8,5.6-13.5,8.7-21.6,8.6c-17.6,0-32-14.3-32-32S680.1,621,697.8,621L697.8,621z"/>
<path d="M766.5,621c17.7-0.1,32,14.2,32.1,31.9s-14.2,32-31.9,32.1c-17.7,0.1-32-14.2-32.1-31.9c-0.1-17.6,14.1-32,31.7-32.1
	C766.4,621,766.4,621,766.5,621z M766.5,676.1c12.7,0,23.1-10.3,23.1-23c0-12.7-10.3-23.1-23-23.1s-23.1,10.3-23.1,23c0,0,0,0,0,0
	C743.5,665.8,753.8,676.1,766.5,676.1z"/>
<path d="M824.1,622.3c0.2-0.7,0.8-1.2,1.6-1.3h1.4c0.6,0,1.2,0.4,1.5,1l18.6,45.4h0.4l18.5-45.4c0.3-0.6,0.9-1,1.5-1h1.4
	c0.8,0.1,1.4,0.6,1.6,1.3l10.9,59.7c0.3,0.8-0.1,1.6-0.9,1.9c-0.2,0.1-0.5,0.1-0.7,0.1h-5.8c-0.8,0-1.4-0.5-1.7-1.2l-6.6-39.7h-0.3
	l-16,40.9c-0.2,0.6-0.8,1-1.5,1h-1.6c-0.7,0-1.3-0.4-1.5-1l-16.1-40.9h-0.4l-6.4,39.7c-0.2,0.7-0.9,1.2-1.6,1.2h-5.8
	c-0.9,0.1-1.7-0.5-1.7-1.4c0-0.2,0-0.4,0-0.6L824.1,622.3z"/>
<path d="M627.2,681.7l-27.1-59.8c-0.3-0.5-0.9-0.9-1.5-1h-0.9c-0.6,0.1-1.2,0.5-1.5,1l-27.3,59.8c-0.4,0.8-0.1,1.7,0.6,2.1
	c0.3,0.1,0.6,0.2,0.9,0.2h5.6c0.9,0,1.7-0.5,2-1.3c1.8-4.1,3.6-8.1,5.4-12.2h29l5.5,12.2c0.3,0.8,1.1,1.3,2,1.3h5.6
	c0.9,0.2,1.7-0.4,1.9-1.3C627.4,682.4,627.3,682,627.2,681.7z M586.9,662.9l10.8-24.3h0.4l10.9,24.3H586.9z"/>
<path class="st0" d="M715.5,174.1c-6.2-2.3-28.3-4.8-37.6-5.8c-4.3-3.5-15.8-12.3-22.4-12.3c-1.4,0-2.8,0.3-4,1
	c-1.8,1-3,2.6-3.5,4.6c-0.7,2.8,0.1,5.8,2.3,10.2c-3.2-1.1-6.5-1.8-9.9-2c-2.6-0.1-5.1,1-6.7,3c-1.3,1.7-1.9,3.8-1.4,5.9
	c2,9.6,19.2,22.8,19.2,22.8c-0.1,0.2-0.2,0.4-0.4,0.6c-15.8,27.2-41.8,31.2-55.8,31.2h-5.1c-10,0-19.9,0.7-29.8,2.1l1.3-3.6
	c17.3-47.9-7.5-100.7-55.3-118s-100.7,7.5-118,55.3c-17.2,47.5,7.1,100,54.4,117.6l1.9,0.7c-11.9,3.5-24.2,5.2-36.6,5.2
	c-12.6,0-25.1-1.8-37.2-5.1c-17.6-4.8-62.5-23.3-101.7-90.4c-5-8.6-9-9.4-11.9-9.4c-2.7,0-5.2,1.2-6.7,3.4c-2.3,3.1-2.5,7.5-0.7,13
	c1.6,5,16.6,50,51.5,83c36.9,34.9,83,54.5,141.1,60.1h0.2c11.9,0.7,23.8,2.2,35.5,4.5l-1.5,2.1c-4.5,6.1-21.9,16.8-38.8,27.1
	c-16.7,10.2-52,27.5-52.3,27.7c-1.8,0.9-44.3,21.5-59.1,34.4c-22.7,19.9-25.7,40.4-21.4,51.9c2.1,5.5,5.9,8.8,10.3,8.8
	c5.1,0,8.6-3.8,14.9-10.6c8.2-9.2,17.2-17.5,27-25c35.4-26.9,76.5-49.5,122-67c9.4-3.6,30.5-9.8,36.7-11.7l2.8-0.8
	c-1.5,8-6.7,15-15.3,20.2c-7,4-36.7,22.4-49.4,30.3c-2.8,1.8-16.7,9.9-22,13c-27.7,15.9-53.9,31-85.1,62.2
	c-18.3,18.3-20.1,43-15.6,53.9c2.6,6.4,7.2,7,9,7c6.1,0,11.2-5.5,22.3-17.4c6.2-6.7,14-15,23.6-24.1c35.4-33.4,84.3-61.8,123.5-84.7
	c18-10.5,33.5-19.5,44.7-27.2c19.1-13,44.3-35.5,56.8-69.2c14.2-14.3,27.1-31.6,39.1-52.5c1.1,7.2,1.8,14.9,0.8,19.4
	c-1.1,5.2-0.5,9.3,1.8,12.1c1.7,2.1,4.2,3.3,6.8,3.3l0,0c7.8,0,15.2-9.9,17-23c1.8-12.7,1.9-43.9,1.9-45.2
	c0.1-17.9,1.8-27.2,4.5-36.4c1.5-4.5,5.6-13.1,7.4-15.1c5.5-6,12.7-10.2,20.7-12l0.6-0.2c7.2-2.4,10.5-10.4,10.7-16.9
	C722.6,180.4,720,175.8,715.5,174.1z"/>
<path d="M507.8,368.6c-2.1-2-8.5-6.8-25.7-10.8c-5.1,6.8-20,16.2-40.6,28.8c-17.2,10.5-52.9,28-52.9,28s-43.4,21-57.6,33.4
	c-29.1,25.4-20.8,49.1-15.5,49.1c4.9,0,13.5-15.7,37.9-34.2C388.2,436.4,429,413.4,477,395c9.9-3.8,31.8-10.3,37.2-11.8
	c-0.2-5.3-2.3-10.3-5.9-14.1L507.8,368.6z"/>
<path class="st1" d="M653.3,194.8c3.4-8.8,4.6-12.8-0.9-15.2c-4.6-2-12.5-4.2-13.6-2.9C637.2,178.9,650.7,193.2,653.3,194.8z"/>
<path class="st2" d="M610.3,318.5c-0.4-16.8-8.2-32.5-21.3-43c-1.5-1.2-3-2.3-4.6-3.3c-8.4-5.4-18.2-8.5-28.2-8.8
	c-30.8-1.1-57.4,23.4-58,54.6c-0.5,24.2,12.3,36.9,17.7,42.3l0.5,0.5c11.9,12,15.9,38.2-9.7,53.8c32.5-18.5,75.6-38.7,98.6-65.4
	c0-0.1,0-0.1,0.1-0.2C606.3,346.6,610.6,332.5,610.3,318.5z"/>
<g>
	<path d="M515.9,360.2c-5.4-5.4-18.2-18.1-17.7-42.3c0.6-31.2,27.2-55.7,58-54.6c10,0.4,19.8,3.4,28.2,8.8l-0.2-0.2
		c-19.8-13.6-64.4-17.4-102.9,6.3c-19.3,12.2-59.1,30.1-112,15.8c-64-17.4-103.4-89.7-106.3-94.5c-4.8-8-9.5-6.1-6.7,2.7
		c2.8,8.9,17.8,50,49.8,80.2c31.5,29.8,74.8,52.3,137.1,58.3C495.9,344.3,511.3,355.8,515.9,360.2z"/>
	<path d="M506.8,414.6c-8.3,4.8-52.7,32.4-54.4,33.4c-33.7,20-64,34.1-100.8,71.1c-20.7,20.8-16.9,49.6-11.3,49.6
		c5.5,0,18.1-17.8,41.3-39.7c52.3-49.3,133.8-88.2,169-112.5c22.4-15.3,44.1-37.5,54.8-67.4C582.4,376,539.2,396.1,506.8,414.6z"/>
	<path d="M713.2,180.3c-4.8-1.8-24.1-4.2-38-5.7c-5.4-4.8-17.9-13.4-20.5-11.9c-2.7,1.5,8.6,17.6,10,20.9
		c-1.3,7.7-3.9,15.1-7.9,21.8c-21.6,37.1-60,34.4-64.1,34.5c15,0.3,56.8,1.4,86.3-22.8c2.3-2,4.6-4.1,6.8-6.3
		c6.4-6.9,14.7-11.7,23.9-13.8C716.2,194.9,718,182.1,713.2,180.3z"/>
</g>
<path class="st3" d="M653.4,280.6L653.4,280.6c1.2,6.7,6.4,29.5,4.1,40.5c-2.8,13.3,10.1,7.9,12.6-10c1.7-12.4,1.9-44.4,1.9-44.4
	c0.1-19.7,2.2-29.6,4.9-38.6C671.3,241.4,663.8,260.3,653.4,280.6z"/>
<path class="st1" d="M479.2,263.7c14.2-9.8,35.7-24.6,66-32.1c3.4-0.8,6.8-1.6,10.3-2.1c16.1-44.4-6.9-93.4-51.3-109.5
	s-93.4,6.9-109.5,51.3c-16,44.1,6.6,92.8,50.5,109.2c10.2-3.2,20-7.7,29-13.4C475.7,266.2,477.4,265,479.2,263.7z"/>
<path class="st1" d="M679,217.1c-29.5,24.3-71.4,23.2-86.3,22.8c-5.8-0.1-26.8,0.1-44.2,4.4c-31.9,7.9-53.3,24.6-67.2,33.9
	c38.5-23.7,83.2-19.9,102.9-6.2c0.1,0,0.1,0.1,0.2,0.2c1.6,1,3.1,2.1,4.6,3.3c13.2,10.4,21,26.2,21.3,43c0.3,14.1-4,28.1-4.8,30.5
	v0.1c20.6-20.6,36.1-45.4,47.9-68.5c10.4-20.3,17.9-39.2,23.5-52.4c3.7-8.8,6.6-15,8.9-17.5C683.6,213,681.3,215.1,679,217.1z"/>
</svg>
