<?xml version="1.0" encoding="utf-8"?>
<!-- Generator: Adobe Illustrator 19.0.0, SVG Export Plug-In . SVG Version: 6.00 Build 0)  -->
<svg version="1.1" id="Layer_1" xmlns="http://www.w3.org/2000/svg" xmlns:xlink="http://www.w3.org/1999/xlink" x="0px" y="0px"
	 viewBox="-221 371.8 130.3 51.2" style="enable-background:new -221 371.8 130.3 51.2;" xml:space="preserve">
<g>
	<path d="M-219.8,412.7c0-1.6,0.3-3.2,0.9-4.9c0.6-1.7,1.5-3.2,2.6-4.7c1.1-1.5,2.5-2.8,4.1-4c1.6-1.2,3.3-2,5.3-2.6
		c-1-0.8-1.9-1.7-2.8-2.6c-0.9-0.9-1.6-1.8-2.3-2.8c-0.6-0.9-1.2-1.9-1.5-2.8c-0.4-1-0.6-1.9-0.6-2.8c0-1.2,0.1-2.4,0.4-3.4
		c0.3-1.1,0.6-2.1,1.1-3c0.5-0.9,1-1.8,1.7-2.5c0.6-0.8,1.3-1.4,2.1-1.9c0.7-0.5,1.5-0.9,2.3-1.2c0.8-0.3,1.6-0.4,2.4-0.4
		c1.1,0,2.1,0.3,3.1,0.8s1.9,1.4,2.6,2.6s1.4,2.7,1.8,4.6c0.5,1.9,0.7,4.1,0.7,6.8c0,1.9-0.1,3.8-0.2,5.5c-0.1,1.7-0.3,3.4-0.6,5
		c0.7,0.4,1.4,0.9,2.2,1.3c0.7,0.4,1.5,0.9,2.2,1.3c0.2,0.1,0.3,0.2,0.6,0.3s0.5,0.3,0.7,0.4c0.2,0.1,0.4,0.3,0.6,0.4
		c0.2,0.1,0.2,0.3,0.2,0.4s-0.1,0.2-0.2,0.3c-0.1,0.1-0.2,0.2-0.4,0.3c-0.1,0.1-0.3,0.2-0.4,0.3c-0.1,0.1-0.2,0.1-0.3,0.2
		c-0.2,0.1-0.5,0.2-0.8,0.2c-0.7,0-1.4-0.1-2.3-0.4c-0.9-0.2-1.9-0.6-2.9-1c-0.5,2.2-1.1,4.2-1.9,6s-1.5,3.4-2.4,4.9
		s-1.8,2.7-2.7,3.8s-1.9,2-2.9,2.7s-2,1.2-2.9,1.6s-1.9,0.5-2.8,0.5c-0.9,0-1.8-0.2-2.6-0.6s-1.5-0.9-2.1-1.7
		c-0.6-0.8-1.1-1.7-1.4-2.8C-219.6,415.4-219.8,414.1-219.8,412.7z M-215.3,413.8c0,1.2,0.2,2.1,0.7,2.7c0.5,0.6,1.1,0.9,1.9,0.9
		c0.8,0,1.7-0.3,2.6-1c1-0.7,2-1.7,3-3.2c1-1.4,1.9-3.3,2.8-5.5s1.7-4.8,2.3-7.9l-0.7-0.4c-1.2,0.2-2.4,0.6-3.4,1.2s-2.1,1.3-3,2.1
		c-0.9,0.8-1.8,1.7-2.5,2.6c-0.8,1-1.4,1.9-1.9,2.9c-0.5,1-1,1.9-1.2,2.9C-215.1,412.2-215.3,413-215.3,413.8z M-209.6,384.3
		c0,0.9,0.2,1.9,0.6,2.8c0.4,0.9,1,1.9,1.7,2.8s1.6,1.8,2.7,2.7c1,0.9,2.2,1.8,3.4,2.7c0.2-1.6,0.4-3.4,0.5-5.2s0.2-3.7,0.2-5.8
		c0-1.4-0.1-2.6-0.3-3.5s-0.4-1.7-0.7-2.3s-0.7-1-1.1-1.3c-0.4-0.3-0.8-0.4-1.3-0.4c-0.4,0-0.9,0.1-1.3,0.3
		c-0.4,0.2-0.9,0.5-1.3,0.9s-0.8,0.8-1.2,1.3s-0.7,1-1,1.6c-0.3,0.6-0.5,1.1-0.7,1.7S-209.6,383.7-209.6,384.3z"/>
	<path d="M-182.3,394.9c0.3,0.7,0.6,1.4,0.8,2.2c0.2,0.8,0.3,1.5,0.3,2.2s-0.1,1.4-0.2,2.1c-0.2,0.7-0.4,1.4-0.7,2.1
		c-0.3,0.7-0.6,1.3-1.1,1.9c-0.4,0.6-0.9,1.1-1.4,1.5c-0.5,0.4-1.1,0.8-1.8,1c-0.6,0.2-1.3,0.4-2,0.4c-1,0-1.9-0.2-2.7-0.7
		c-0.7-0.5-1.3-1-1.8-1.8c-0.5-0.7-0.8-1.6-1-2.5c-0.2-0.9-0.3-1.9-0.3-2.8c0-1.3,0.2-2.5,0.6-3.6c0.4-1.1,0.9-2.1,1.7-2.9
		c0.7-0.8,1.6-1.5,2.7-2c1.1-0.5,2.2-0.7,3.5-0.7c1.1,0,2.2,0.2,3.2,0.5c1,0.3,1.9,0.8,2.8,1.4c0.9,0.6,1.7,1.3,2.4,2
		c0.7,0.8,1.4,1.5,2.1,2.3l-0.3,2.5c-0.3-0.4-0.8-0.9-1.3-1.4s-1.1-1-1.7-1.5c-0.6-0.5-1.2-0.9-1.8-1.3c-0.6-0.4-1.1-0.8-1.5-1.1
		L-182.3,394.9z M-187.7,404.7c0.4,0,0.8-0.2,1.2-0.6s0.7-0.9,1-1.5c0.3-0.6,0.5-1.3,0.7-2.1c0.2-0.8,0.3-1.5,0.3-2.2
		c0-0.5,0-1-0.1-1.5c-0.1-0.5-0.2-0.9-0.4-1.2c-0.2-0.3-0.4-0.6-0.6-0.8c-0.3-0.2-0.6-0.3-0.9-0.3c-0.5,0-0.9,0.2-1.4,0.6
		s-0.8,0.9-1.2,1.6s-0.6,1.4-0.8,2.1s-0.3,1.5-0.3,2.3c0,0.5,0,1,0.1,1.4s0.2,0.8,0.4,1.1c0.2,0.3,0.5,0.6,0.8,0.8
		C-188.6,404.6-188.2,404.7-187.7,404.7z"/>
	<path d="M-171.9,393.9c0.7-0.8,1.3-1.5,1.8-2c0.5-0.5,1.1-0.8,1.6-0.8c0.7,0,1.3,0.2,1.9,0.5c0.5,0.3,1,0.7,1.4,1.2
		c0.4,0.5,0.7,1.1,0.9,1.8c0.2,0.7,0.3,1.4,0.3,2.1c0,0.6,0,1.2-0.1,1.7c0,0.5-0.1,1.1-0.3,1.6c-0.1,0.5-0.3,1-0.5,1.5
		c-0.2,0.5-0.5,1-0.9,1.6c0.4-0.2,0.9-0.5,1.3-0.7s0.9-0.5,1.3-0.8c0.4-0.3,0.9-0.6,1.3-0.9c0.4-0.3,0.9-0.8,1.4-1.2l1.4,2.9
		c-0.6,0.6-1.3,1.1-1.9,1.5c-0.6,0.4-1.3,0.8-2,1.1s-1.4,0.6-2.1,0.8s-1.5,0.4-2.3,0.6c-0.2,0.2-0.5,0.4-0.8,0.6s-0.7,0.4-1,0.5
		c-0.4,0.2-0.8,0.4-1.3,0.5h-0.4c-1,0-2-0.1-3-0.4c-1-0.3-1.9-0.6-2.7-0.9c-0.9-0.4-1.8-0.8-2.7-1.3c0-1,0.1-2,0.2-3.2
		c0.1-1,0.2-2.3,0.4-3.7c0.2-1.4,0.4-3,0.7-4.7c0.2-1.2,0.4-2.4,0.7-3.9c0.3-1.4,0.6-2.9,1-4.3s0.8-2.9,1.3-4.3
		c0.5-1.4,1-2.6,1.6-3.7c0.6-1.1,1.2-1.9,1.9-2.6c0.7-0.6,1.4-1,2.2-1c0.9,0,1.6,0.2,2.2,0.5c0.5,0.3,1,0.7,1.3,1.2
		c0.3,0.5,0.5,1.1,0.6,1.9c0.1,0.7,0.1,1.5,0.1,2.3c0,1.1-0.2,2.3-0.6,3.5c-0.4,1.2-1,2.4-1.6,3.6c-0.7,1.2-1.4,2.3-2.3,3.5
		c-0.8,1.1-1.7,2.2-2.5,3.2L-171.9,393.9z M-170.3,395.2c-0.4,0-0.8,0.1-1.2,0.3c-0.4,0.2-0.8,0.4-1.2,0.8c-0.4,0.4-0.7,0.8-0.9,1.4
		c-0.3,0.6-0.5,1.2-0.6,2c-0.1,0.6-0.2,1.2-0.3,1.8c-0.1,0.5-0.1,1-0.2,1.4c0,0.5-0.1,0.9-0.1,1.3c0.4,0.1,0.8,0.2,1.2,0.3
		c0.3,0.1,0.7,0.1,1.1,0.2c0.4,0.1,0.7,0.1,1.1,0.1c0.4,0,0.8-0.1,1.1-0.4c0.3-0.2,0.6-0.6,0.9-0.9c0.3-0.4,0.5-0.8,0.7-1.4
		s0.3-1,0.5-1.6c0.1-0.5,0.2-1.1,0.3-1.6c0.1-0.5,0.1-1,0.1-1.5c0-0.3,0-0.6-0.1-0.8c-0.1-0.3-0.2-0.5-0.4-0.7
		c-0.2-0.2-0.4-0.4-0.7-0.5C-169.5,395.2-169.9,395.2-170.3,395.2z M-168.6,378.9c0,0,0-0.1,0-0.3c0-0.2-0.1-0.3-0.1-0.5
		c-0.1-0.2-0.2-0.3-0.3-0.4c-0.1-0.1-0.3-0.2-0.5-0.2c-0.2,0-0.5,0.2-0.7,0.5c-0.3,0.3-0.5,0.8-0.8,1.4c-0.2,0.6-0.5,1.2-0.7,2
		c-0.2,0.8-0.5,1.5-0.7,2.4c-0.2,0.8-0.4,1.7-0.6,2.5c-0.2,0.9-0.4,1.7-0.5,2.4c-0.2,0.8-0.3,1.5-0.4,2.1c-0.1,0.6-0.2,1.1-0.3,1.5
		c0.3-0.6,0.7-1.3,1.1-1.9c0.4-0.7,0.8-1.3,1.2-2.1c0.4-0.7,0.8-1.4,1.2-2.2c0.4-0.8,0.7-1.5,1-2.3c0.3-0.8,0.6-1.6,0.8-2.4
		C-168.8,380.6-168.7,379.8-168.6,378.9z"/>
	<path d="M-151.5,386.6c0,0,0,0.1,0,0.2c0,0.1-0.1,0.3-0.2,0.5c-0.1,0.2-0.3,0.3-0.6,0.4c-0.3,0.1-0.7,0.2-1.2,0.2
		c-0.7,0-1.2,0-1.6-0.1c-0.4-0.1-0.7-0.2-0.9-0.3c-0.2-0.1-0.3-0.3-0.3-0.5s-0.1-0.3-0.1-0.5c0-1.8,0.4-3.3,1.3-4.5
		c0.9-1.3,2.1-2.3,3.7-3.1c1.6-0.8,3.5-1.4,5.8-1.8c2.2-0.4,4.7-0.6,7.4-0.6c1.8,0,3.7,0.1,5.6,0.2c2,0.1,4,0.3,6.1,0.6
		c0.6,0.2,1,0.4,1.2,0.7c0.2,0.3,0.3,0.6,0.3,1c0,0.2,0,0.5-0.1,0.7s-0.2,0.5-0.3,0.7c-0.1,0.2-0.3,0.4-0.5,0.5s-0.5,0.2-0.8,0.2
		c0,0-0.1,0-0.2,0s-0.1,0-0.2,0c-0.8-0.1-1.6-0.2-2.5-0.3c-0.9-0.1-1.8-0.2-2.8-0.2s-2-0.1-3-0.1c-1,0-2.1,0-3.2,0
		c-0.3,0-0.7,0-1.1,0.1c-0.4,0-0.9,0.1-1.3,0.1c-0.5,0-1,0.1-1.5,0.2c0,0.1,0,0.3,0,0.4c0,0.2-0.1,0.4-0.1,0.7
		c0,0.3-0.1,0.7-0.2,1.1c-0.1,0.5-0.1,1.1-0.2,1.8c-0.1,0.7-0.2,1.6-0.3,2.6s-0.2,2.3-0.4,3.7h9.8c0.3,0,0.5,0.1,0.7,0.2
		c0.2,0.1,0.3,0.3,0.3,0.4c0.1,0.2,0.1,0.4,0.1,0.5c0,0.2,0,0.4,0,0.6c0,0.6-0.1,1-0.4,1.3c-0.2,0.3-0.5,0.4-0.8,0.4
		c-0.1,0-0.4,0-0.8,0c-0.5,0-1,0-1.7,0.1c-0.7,0-1.4,0.1-2.2,0.1c-0.8,0-1.6,0.1-2.3,0.1c-0.7,0-1.4,0-2,0.1c-0.6,0-1.1,0-1.4,0
		c-0.2,1.4-0.5,2.8-0.7,4.1s-0.6,2.6-1,3.7c-0.4,1.2-0.9,2.2-1.4,3.1c-0.6,0.9-1.2,1.8-2,2.4c-0.8,0.7-1.7,1.2-2.7,1.6
		c-1,0.4-2.2,0.6-3.5,0.6c-0.3,0-0.6,0-1-0.1c-0.4,0-0.8-0.1-1.2-0.2c-0.4-0.1-0.8-0.2-1.2-0.3s-0.8-0.3-1.1-0.5
		c-0.3-0.2-0.6-0.4-0.8-0.7s-0.3-0.6-0.3-0.9c0-0.2,0-0.4,0.1-0.7s0.2-0.6,0.4-0.8s0.4-0.5,0.6-0.7c0.2-0.2,0.5-0.3,0.9-0.3
		c0.4,0,0.8,0.1,1.2,0.2c0.4,0.1,0.9,0.3,1.3,0.4c0.5,0.2,0.9,0.3,1.4,0.4c0.5,0.1,1,0.2,1.5,0.2c0.4,0,0.8-0.2,1.1-0.5
		c0.4-0.3,0.7-0.7,1-1.3c0.3-0.5,0.6-1.2,0.9-1.9c0.3-0.7,0.6-1.5,0.8-2.4c0.3-0.9,0.5-1.8,0.7-2.7c0.2-0.9,0.4-1.9,0.6-2.8h-2.2
		c-0.2,0-0.4,0-0.7-0.1c-0.3,0-0.6-0.1-0.9-0.2c-0.3-0.1-0.5-0.3-0.7-0.5c-0.2-0.2-0.3-0.4-0.3-0.7c0-0.2,0.1-0.4,0.2-0.6
		c0.1-0.2,0.3-0.3,0.5-0.4c0.7-0.1,1.2-0.3,1.7-0.4c0.5-0.1,0.9-0.2,1.3-0.3c0.4-0.1,0.7-0.1,1-0.2c0.3-0.1,0.6-0.1,0.8-0.1
		c0.3-1.3,0.5-2.4,0.7-3.3s0.3-1.8,0.4-2.5c0.1-0.8,0.2-1.5,0.3-2.2c0.1-0.7,0.2-1.4,0.4-2.1c-1,0.3-1.9,0.6-2.7,1.1
		c-0.8,0.4-1.4,0.9-1.9,1.3s-0.9,1-1.1,1.5S-151.5,386.2-151.5,386.6z"/>
	<path d="M-125.7,404.4c-0.4,0.4-1,0.8-1.6,1.2c-0.6,0.4-1.3,0.9-2,1.2s-1.5,0.7-2.2,0.9s-1.5,0.4-2.2,0.4c-0.6,0-1.1-0.1-1.6-0.3
		c-0.4-0.2-0.8-0.4-1-0.7c-0.3-0.3-0.4-0.7-0.6-1.1c-0.1-0.4-0.2-0.9-0.2-1.5c0-0.7,0.1-1.6,0.3-2.6c0.2-1,0.4-2,0.6-3.1
		c0.2-1.1,0.5-2.1,0.8-3.2c0.3-1.1,0.5-2,0.7-2.9c0.1-0.3,0.2-0.6,0.5-0.8s0.5-0.4,0.8-0.5c0.3-0.1,0.6-0.2,1-0.3s0.6-0.1,0.9-0.1
		c0.5,0,0.8,0.1,1,0.3c0.2,0.2,0.3,0.4,0.3,0.7c0,0.3-0.1,0.6-0.2,1.1s-0.3,1-0.4,1.7c-0.2,0.6-0.4,1.3-0.6,2s-0.4,1.4-0.6,2.1
		c-0.2,0.7-0.3,1.4-0.4,2.1c-0.1,0.7-0.2,1.3-0.2,1.8c0,0.5,0.1,1,0.2,1.3c0.1,0.3,0.4,0.5,0.7,0.5c0.4,0,0.9-0.1,1.4-0.4
		c0.5-0.3,1-0.7,1.6-1.1c0.5-0.4,1.1-0.9,1.6-1.3s1-0.8,1.3-1.2V404.4z M-133.6,386.1c0-0.3,0.1-0.6,0.2-0.9c0.1-0.3,0.3-0.7,0.6-1
		s0.6-0.6,1.1-0.8c0.4-0.2,1-0.3,1.7-0.3c0.4,0,0.8,0,1.2,0.1c0.4,0.1,0.7,0.2,1,0.4c0.3,0.2,0.5,0.5,0.6,0.8
		c0.2,0.3,0.2,0.7,0.2,1.1c0,0.4-0.1,0.8-0.2,1.2c-0.1,0.4-0.3,0.7-0.6,1c-0.3,0.3-0.6,0.5-1.1,0.7c-0.4,0.2-0.9,0.3-1.6,0.3
		c-1,0-1.8-0.2-2.3-0.7S-133.6,387-133.6,386.1z"/>
	<path d="M-126.9,404.4c0-0.8,0-1.7,0.1-2.7c0.1-1,0.2-2.1,0.4-3.1c0.1-1.1,0.3-2.1,0.5-3.1c0.2-1,0.3-1.8,0.5-2.5
		c0.1-0.5,0.4-1,0.8-1.4s0.9-0.5,1.5-0.5c0.6,0,1.1,0.2,1.3,0.6c0.2,0.4,0.4,0.9,0.4,1.6c0,0.2,0,0.4-0.1,0.7s-0.1,0.6-0.1,1
		c-0.1,0.4-0.1,0.7-0.2,1.1c-0.1,0.4-0.1,0.7-0.2,1.1c-0.1,0.3-0.1,0.6-0.1,0.9s-0.1,0.4-0.1,0.5h0.4c0.1-0.1,0.2-0.3,0.3-0.6
		c0.2-0.3,0.3-0.6,0.5-1c0.2-0.4,0.4-0.8,0.6-1.2c0.2-0.4,0.4-0.8,0.6-1.2c0.2-0.4,0.4-0.7,0.5-1c0.2-0.3,0.3-0.5,0.4-0.7
		c0.4-0.6,0.8-1.1,1.3-1.3c0.5-0.2,1-0.4,1.6-0.4c0.6,0,1.1,0.2,1.4,0.7s0.5,1.2,0.5,2.1c0,0.1,0,0.3-0.1,0.7
		c-0.1,0.3-0.1,0.7-0.2,1.1s-0.2,0.9-0.3,1.4c-0.1,0.5-0.2,1-0.3,1.6c-0.1,0.5-0.2,1.1-0.2,1.6c-0.1,0.5-0.1,1-0.1,1.4
		c0,0.7,0.1,1.3,0.3,1.8c0.2,0.5,0.5,0.7,0.9,0.7c0.2,0,0.4-0.1,0.6-0.2s0.5-0.2,0.7-0.4c0.3-0.2,0.5-0.4,0.8-0.6
		c0.3-0.2,0.6-0.5,0.8-0.7c0.6-0.6,1.3-1.2,2-1.9l0.3,4l-0.9,0.7c-0.5,0.4-1,0.7-1.5,1.1c-0.5,0.4-1,0.7-1.6,1
		c-0.5,0.3-1.1,0.5-1.7,0.7c-0.6,0.2-1.2,0.3-1.9,0.3c-0.6,0-1.2-0.5-1.6-1.4c-0.4-0.9-0.7-2.3-0.7-4.1c0-0.7,0-1.5,0.1-2.3
		c0.1-0.8,0.2-1.7,0.4-2.6h-0.3l-4.6,9.2c-0.2,0.5-0.5,0.8-0.8,1c-0.3,0.2-0.6,0.3-1,0.3c-0.5,0-0.9-0.1-1.2-0.3
		c-0.3-0.2-0.5-0.5-0.7-0.8s-0.3-0.7-0.3-1.2C-126.9,405.4-126.9,404.9-126.9,404.4z"/>
	<path d="M-111.1,401.3c0.7-0.6,1.2-1,1.6-1.4c0.4-0.4,0.8-0.7,1.1-1c0.3-0.3,0.6-0.6,0.8-0.9c0.2-0.3,0.5-0.7,0.9-1.1
		c0.3-0.4,0.7-1,1.2-1.6c0.5-0.6,1.1-1.4,1.8-2.4c0.2-0.2,0.3-0.4,0.5-0.6c0.2-0.2,0.4-0.4,0.6-0.5c0.2-0.2,0.5-0.3,0.8-0.4
		c0.3-0.1,0.6-0.2,0.9-0.2c0.6,0,1,0.1,1.3,0.2c0.3,0.1,0.5,0.3,0.7,0.5s0.2,0.4,0.2,0.6s0,0.4,0,0.5c0,0.3-0.1,0.6-0.3,0.9
		c-0.2,0.3-0.5,0.7-0.7,1c-0.3,0.3-0.5,0.6-0.8,0.9c-0.2,0.3-0.4,0.5-0.4,0.6c0,0.4,0,0.7,0.1,1c0.1,0.3,0.1,0.6,0.2,0.9
		c0.1,0.3,0.2,0.6,0.3,0.9c0.1,0.3,0.2,0.7,0.3,1.1c0.1,0.4,0.2,0.9,0.2,1.5c0.1,0.6,0.1,1.2,0.1,2c0.4-0.3,0.9-0.5,1.4-0.8
		c0.5-0.2,1-0.5,1.5-0.7c0.5-0.2,1.1-0.5,1.6-0.8c0.6-0.3,1.1-0.7,1.7-1.1l0,4c-0.7,0.6-1.6,1.1-2.5,1.6c-1,0.5-2,0.9-3,1.3
		c-1.1,0.4-2.1,0.7-3.2,0.9c-1.1,0.2-2.1,0.3-3.1,0.3c-0.7,0-1.3-0.1-1.9-0.2s-1.1-0.3-1.6-0.6s-0.8-0.6-1.1-1.1s-0.5-1-0.5-1.6
		c-0.2,0-0.3,0.1-0.5,0.1s-0.3,0-0.5,0c-0.2,0-0.4,0-0.5,0c-0.2,0-0.3-0.1-0.4-0.1s-0.2-0.2-0.3-0.4c-0.1-0.2-0.1-0.4-0.1-0.7
		c0-0.3,0.1-0.5,0.2-0.8s0.3-0.5,0.5-0.6c0.2-0.2,0.4-0.4,0.6-0.5C-111.3,401.5-111.2,401.4-111.1,401.3z M-108.8,403.6
		c0.1,0,0.3,0.1,0.5,0.3c0.2,0.2,0.4,0.4,0.6,0.6c0.2,0.2,0.5,0.4,0.8,0.6c0.3,0.2,0.6,0.3,1,0.3c0.5,0,0.8-0.1,1.1-0.2
		c0.3-0.2,0.5-0.4,0.7-0.6c0.2-0.3,0.3-0.5,0.4-0.9c0.1-0.3,0.1-0.7,0.1-1.1c0-0.3,0-0.6-0.1-1c0-0.3-0.1-0.6-0.2-0.9
		c-0.1-0.3-0.1-0.6-0.2-0.9c-0.1-0.3-0.1-0.5-0.2-0.7L-108.8,403.6z"/>
</g>
</svg>
