<?xml version="1.0" encoding="utf-8"?>
<!-- Generator: Adobe Illustrator 19.0.0, SVG Export Plug-In . SVG Version: 6.00 Build 0)  -->
<svg version="1.1" id="Layer_1" xmlns="http://www.w3.org/2000/svg" xmlns:xlink="http://www.w3.org/1999/xlink" x="0px" y="0px"
	 viewBox="-221 371.8 264 27" style="enable-background:new -221 371.8 264 27;" xml:space="preserve">
<style type="text/css">
	.st0{fill:none;stroke:#231F20;stroke-width:4;stroke-linecap:round;stroke-linejoin:round;}
	.st1{fill:none;stroke:#FFFFFF;stroke-width:1.5;stroke-linecap:round;stroke-linejoin:round;}
</style>
<g>
	<path class="st0" d="M-102.8,381.3l0.3-1.3c0.8-3.1-1-5.7-4.1-5.7h-20l-1.2,4.6h20.1c0.6,0,0.9,0.5,0.7,1l-0.3,1.3
		c-0.2,0.6-0.7,1-1.3,1h-20.1l-1.2,4.6h15.4c3.1,0,5,2.5,4.1,5.7l-0.6,2.3h4.6l0.6-2.2c0.7-2.6,0.4-4.9-0.7-6.7
		C-104.8,385-103.3,383.3-102.8,381.3z M-214,380l-0.3,1.3c-0.8,3.1,1,5.7,4.1,5.7h14.4c0.6,0,0.9,0.5,0.7,1l-0.3,1.3
		c-0.2,0.6-0.7,1-1.3,1h-20.1l-1.2,4.6h20c3.1,0,6.3-2.5,7.2-5.7l0.3-1.3c0.8-3.1-1-5.7-4.1-5.7H-209c-0.6,0-0.9-0.5-0.8-1l0.4-1.3
		c0.2-0.6,0.7-1,1.3-1h20l1.2-4.6h-20.1C-209.9,374.4-213.2,376.9-214,380z M-158.2,374.4h-25.7l-1.2,4.6h10.5l-4.3,15.9h4.6
		l4.3-15.9h10.5L-158.2,374.4z M-135.3,374.4h-20l-1.2,4.6h20c0.6,0,0.9,0.5,0.7,1l-0.6,2.3h-15.4c-3.1,0-6.3,2.5-7.2,5.7l-0.4,1.3
		c-0.8,3.1,1,5.7,4.1,5.7h20l4-14.9C-130.3,376.9-132.1,374.4-135.3,374.4z M-138.5,390.3h-15.4c-0.6,0-0.9-0.5-0.8-1l0.3-1.3
		c0.2-0.6,0.7-1,1.3-1h15.4L-138.5,390.3z M11.5,381.3l0.3-1.3c0.8-3.1-1-5.7-4.1-5.7h-20l-1.3,4.6H6.5c0.6,0,0.9,0.5,0.8,1
		l-0.3,1.3c-0.2,0.6-0.7,1-1.3,1h-20.1l-1.2,4.6h15.4c3.1,0,5,2.5,4.1,5.7L3.3,395h4.6l0.6-2.2c0.7-2.6,0.4-4.9-0.7-6.7
		C9.6,385,11,383.3,11.5,381.3z M-20.9,374.4h-20.1l-1.2,4.6h20.1c0.6,0,0.9,0.5,0.8,1l-0.6,2.3h-15.4c-3.1,0-6.3,2.5-7.2,5.7
		l-0.4,1.3c-0.8,3.1,1,5.7,4.1,5.7h20.1l4-14.9C-15.9,376.9-17.7,374.4-20.9,374.4z M-24.1,390.3h-15.4c-0.6,0-0.9-0.5-0.7-1
		l0.3-1.3c0.2-0.6,0.7-1,1.3-1h15.4L-24.1,390.3z M-49.5,374.4h-14.4c-3.1,0-6.4,2.5-7.2,5.7l-2.5,9.2c-0.8,3.1,1,5.7,4.1,5.7H-55
		c3.1,0,6.3-2.5,7.2-5.7l2.5-9.2C-44.5,376.9-46.3,374.4-49.5,374.4z M-49.9,380l-2.5,9.2c-0.2,0.6-0.7,1-1.3,1h-14.4
		c-0.6,0-0.9-0.5-0.8-1l2.5-9.2c0.2-0.6,0.7-1,1.3-1h14.4C-50.1,379-49.8,379.5-49.9,380z M36.3,374.4H16.3L10.8,395h20
		c3.1,0,6.3-2.5,7.2-5.7l2.5-9.2C41.3,376.9,39.4,374.4,36.3,374.4z M35.8,380l-2.5,9.2c-0.2,0.6-0.7,1-1.3,1H16.6l3-11.3h15.4
		C35.6,379,36,379.5,35.8,380z M-78,374.4h-20l-5.5,20.6h20c3.1,0,6.3-2.5,7.2-5.7l0.4-1.3c0.3-1.2,0.2-2.4-0.2-3.3
		c0.9-0.9,1.6-2.1,2-3.3l0.3-1.3C-73.1,376.9-74.9,374.4-78,374.4z M-80.6,388l-0.3,1.3c-0.2,0.6-0.7,1-1.3,1h-15.4l0.9-3.3h15.4
		C-80.8,387-80.5,387.5-80.6,388z M-78.5,380l-0.3,1.3c-0.2,0.6-0.7,1-1.3,1h-15.4l0.9-3.3h15.4C-78.7,379-78.4,379.5-78.5,380z"/>
	<path d="M-102.8,381.3l0.3-1.3c0.8-3.1-1-5.7-4.1-5.7h-20l-1.2,4.6h20.1c0.6,0,0.9,0.5,0.7,1l-0.3,1.3c-0.2,0.6-0.7,1-1.3,1h-20.1
		l-1.2,4.6h15.4c3.1,0,5,2.5,4.1,5.7l-0.6,2.3h4.6l0.6-2.2c0.7-2.6,0.4-4.9-0.7-6.7C-104.8,385-103.3,383.3-102.8,381.3z M-214,380
		l-0.3,1.3c-0.8,3.1,1,5.7,4.1,5.7h14.4c0.6,0,0.9,0.5,0.7,1l-0.3,1.3c-0.2,0.6-0.7,1-1.3,1h-20.1l-1.2,4.6h20
		c3.1,0,6.3-2.5,7.2-5.7l0.3-1.3c0.8-3.1-1-5.7-4.1-5.7H-209c-0.6,0-0.9-0.5-0.8-1l0.4-1.3c0.2-0.6,0.7-1,1.3-1h20l1.2-4.6h-20.1
		C-209.9,374.4-213.2,376.9-214,380z M-158.2,374.4h-25.7l-1.2,4.6h10.5l-4.3,15.9h4.6l4.3-15.9h10.5L-158.2,374.4z M-135.3,374.4
		h-20l-1.2,4.6h20c0.6,0,0.9,0.5,0.7,1l-0.6,2.3h-15.4c-3.1,0-6.3,2.5-7.2,5.7l-0.4,1.3c-0.8,3.1,1,5.7,4.1,5.7h20l4-14.9
		C-130.3,376.9-132.1,374.4-135.3,374.4z M-138.5,390.3h-15.4c-0.6,0-0.9-0.5-0.8-1l0.3-1.3c0.2-0.6,0.7-1,1.3-1h15.4L-138.5,390.3z
		 M11.5,381.3l0.3-1.3c0.8-3.1-1-5.7-4.1-5.7h-20l-1.3,4.6H6.5c0.6,0,0.9,0.5,0.8,1l-0.3,1.3c-0.2,0.6-0.7,1-1.3,1h-20.1l-1.2,4.6
		h15.4c3.1,0,5,2.5,4.1,5.7L3.3,395h4.6l0.6-2.2c0.7-2.6,0.4-4.9-0.7-6.7C9.6,385,11,383.3,11.5,381.3z M-20.9,374.4h-20.1l-1.2,4.6
		h20.1c0.6,0,0.9,0.5,0.8,1l-0.6,2.3h-15.4c-3.1,0-6.3,2.5-7.2,5.7l-0.4,1.3c-0.8,3.1,1,5.7,4.1,5.7h20.1l4-14.9
		C-15.9,376.9-17.7,374.4-20.9,374.4z M-24.1,390.3h-15.4c-0.6,0-0.9-0.5-0.7-1l0.3-1.3c0.2-0.6,0.7-1,1.3-1h15.4L-24.1,390.3z
		 M-49.5,374.4h-14.4c-3.1,0-6.4,2.5-7.2,5.7l-2.5,9.2c-0.8,3.1,1,5.7,4.1,5.7H-55c3.1,0,6.3-2.5,7.2-5.7l2.5-9.2
		C-44.5,376.9-46.3,374.4-49.5,374.4z M-49.9,380l-2.5,9.2c-0.2,0.6-0.7,1-1.3,1h-14.4c-0.6,0-0.9-0.5-0.8-1l2.5-9.2
		c0.2-0.6,0.7-1,1.3-1h14.4C-50.1,379-49.8,379.5-49.9,380z M36.3,374.4H16.3L10.8,395h20c3.1,0,6.3-2.5,7.2-5.7l2.5-9.2
		C41.3,376.9,39.4,374.4,36.3,374.4z M35.8,380l-2.5,9.2c-0.2,0.6-0.7,1-1.3,1H16.6l3-11.3h15.4C35.6,379,36,379.5,35.8,380z
		 M-78,374.4h-20l-5.5,20.6h20c3.1,0,6.3-2.5,7.2-5.7l0.4-1.3c0.3-1.2,0.2-2.4-0.2-3.3c0.9-0.9,1.6-2.1,2-3.3l0.3-1.3
		C-73.1,376.9-74.9,374.4-78,374.4z M-80.6,388l-0.3,1.3c-0.2,0.6-0.7,1-1.3,1h-15.4l0.9-3.3h15.4C-80.8,387-80.5,387.5-80.6,388z
		 M-78.5,380l-0.3,1.3c-0.2,0.6-0.7,1-1.3,1h-15.4l0.9-3.3h15.4C-78.7,379-78.4,379.5-78.5,380z"/>
	<path class="st1" d="M-102.8,381.3l0.3-1.3c0.8-3.1-1-5.7-4.1-5.7h-20l-1.2,4.6h20.1c0.6,0,0.9,0.5,0.7,1l-0.3,1.3
		c-0.2,0.6-0.7,1-1.3,1h-20.1l-1.2,4.6h15.4c3.1,0,5,2.5,4.1,5.7l-0.6,2.3h4.6l0.6-2.2c0.7-2.6,0.4-4.9-0.7-6.7
		C-104.8,385-103.3,383.3-102.8,381.3z M-214,380l-0.3,1.3c-0.8,3.1,1,5.7,4.1,5.7h14.4c0.6,0,0.9,0.5,0.7,1l-0.3,1.3
		c-0.2,0.6-0.7,1-1.3,1h-20.1l-1.2,4.6h20c3.1,0,6.3-2.5,7.2-5.7l0.3-1.3c0.8-3.1-1-5.7-4.1-5.7H-209c-0.6,0-0.9-0.5-0.8-1l0.4-1.3
		c0.2-0.6,0.7-1,1.3-1h20l1.2-4.6h-20.1C-209.9,374.4-213.2,376.9-214,380z M-158.2,374.4h-25.7l-1.2,4.6h10.5l-4.3,15.9h4.6
		l4.3-15.9h10.5L-158.2,374.4z M-135.3,374.4h-20l-1.2,4.6h20c0.6,0,0.9,0.5,0.7,1l-0.6,2.3h-15.4c-3.1,0-6.3,2.5-7.2,5.7l-0.4,1.3
		c-0.8,3.1,1,5.7,4.1,5.7h20l4-14.9C-130.3,376.9-132.1,374.4-135.3,374.4z M-138.5,390.3h-15.4c-0.6,0-0.9-0.5-0.8-1l0.3-1.3
		c0.2-0.6,0.7-1,1.3-1h15.4L-138.5,390.3z M11.5,381.3l0.3-1.3c0.8-3.1-1-5.7-4.1-5.7h-20l-1.3,4.6H6.5c0.6,0,0.9,0.5,0.8,1
		l-0.3,1.3c-0.2,0.6-0.7,1-1.3,1h-20.1l-1.2,4.6h15.4c3.1,0,5,2.5,4.1,5.7L3.3,395h4.6l0.6-2.2c0.7-2.6,0.4-4.9-0.7-6.7
		C9.6,385,11,383.3,11.5,381.3z M-20.9,374.4h-20.1l-1.2,4.6h20.1c0.6,0,0.9,0.5,0.8,1l-0.6,2.3h-15.4c-3.1,0-6.3,2.5-7.2,5.7
		l-0.4,1.3c-0.8,3.1,1,5.7,4.1,5.7h20.1l4-14.9C-15.9,376.9-17.7,374.4-20.9,374.4z M-24.1,390.3h-15.4c-0.6,0-0.9-0.5-0.7-1
		l0.3-1.3c0.2-0.6,0.7-1,1.3-1h15.4L-24.1,390.3z M-49.5,374.4h-14.4c-3.1,0-6.4,2.5-7.2,5.7l-2.5,9.2c-0.8,3.1,1,5.7,4.1,5.7H-55
		c3.1,0,6.3-2.5,7.2-5.7l2.5-9.2C-44.5,376.9-46.3,374.4-49.5,374.4z M-49.9,380l-2.5,9.2c-0.2,0.6-0.7,1-1.3,1h-14.4
		c-0.6,0-0.9-0.5-0.8-1l2.5-9.2c0.2-0.6,0.7-1,1.3-1h14.4C-50.1,379-49.8,379.5-49.9,380z M36.3,374.4H16.3L10.8,395h20
		c3.1,0,6.3-2.5,7.2-5.7l2.5-9.2C41.3,376.9,39.4,374.4,36.3,374.4z M35.8,380l-2.5,9.2c-0.2,0.6-0.7,1-1.3,1H16.6l3-11.3h15.4
		C35.6,379,36,379.5,35.8,380z M-78,374.4h-20l-5.5,20.6h20c3.1,0,6.3-2.5,7.2-5.7l0.4-1.3c0.3-1.2,0.2-2.4-0.2-3.3
		c0.9-0.9,1.6-2.1,2-3.3l0.3-1.3C-73.1,376.9-74.9,374.4-78,374.4z M-80.6,388l-0.3,1.3c-0.2,0.6-0.7,1-1.3,1h-15.4l0.9-3.3h15.4
		C-80.8,387-80.5,387.5-80.6,388z M-78.5,380l-0.3,1.3c-0.2,0.6-0.7,1-1.3,1h-15.4l0.9-3.3h15.4C-78.7,379-78.4,379.5-78.5,380z"/>
</g>
</svg>
