<?xml version="1.0" encoding="utf-8"?>
<!-- Generator: Adobe Illustrator 19.0.0, SVG Export Plug-In . SVG Version: 6.00 Build 0)  -->
<svg version="1.1" id="Layer_1" xmlns="http://www.w3.org/2000/svg" xmlns:xlink="http://www.w3.org/1999/xlink" x="0px" y="0px"
	 viewBox="0 0 465.3 95.4" style="enable-background:new 0 0 465.3 95.4;" xml:space="preserve">
<g>
	<path d="M29.1,10.2l-3.8,21.3c2.5-3.4,5.9-6.1,10-8.3c3.5-1.8,7.6-2.7,12.2-2.7c8.3,0,14.6,3.5,18.7,10.4
		c4.1,6.9,5.2,15.9,3.2,26.9c-1.9,11-6.2,20-12.7,26.9c-3.3,3.4-7.3,5.8-12.1,7.3c-4.8,1.5-9.4,2.3-13.9,2.3c-8.5,0-16-2.2-22.5-6.7
		c-6.5-4.4-8.6-13-6.4-25.6l10.8-61h9.1c2.5,0,4.5,0.9,5.9,2.7C29.1,5.5,29.6,7.7,29.1,10.2z M51.3,57.1c1.1-6.4,0.7-11.4-1.4-14.9
		c-2-3.7-5.3-5.6-9.9-5.6c-5,0-9.1,1.8-12.4,5.3c-3.3,3.7-5.5,8.8-6.7,15.2c-1.3,7.5-1,12.9,0.9,16.3c2,3.7,5.4,5.6,10.2,5.6
		c5,0,9.1-1.9,12.4-5.6C47.7,69.6,50,64.2,51.3,57.1z"/>
	<path d="M66.5,93l6.1-34.4c1.2-6.9,3.3-12.7,6.1-17.5c2.9-4.7,6.3-8.5,10.4-11.3c3.8-2.7,8.1-4.6,12.9-5.9
		c4.7-1.2,9.5-1.9,14.3-1.9c0.4,0,0.8,0,1.3,0c0.5,0,1,0,1.3,0l-3.3,18.9h-6.1c-5.2,0-9.2,1.2-12.1,3.7c-2.9,2.5-4.9,6.4-5.8,11.7
		L85.2,93H66.5z"/>
	<path d="M122.4,22.2h9.6c2.5,0,4.5,0.9,5.9,2.7c1.5,1.8,2,3.9,1.5,6.4L128.6,93h-18.7L122.4,22.2z M126.1,1.4h9.6
		c2.5,0,4.5,0.9,5.9,2.7c1.5,1.8,2,3.9,1.5,6.4l-1,5.6h-18.7L126.1,1.4z"/>
	<path d="M135.3,69.6h18.1c-0.5,3.6,0.4,6.2,2.6,8c2.4,1.8,5.7,2.7,10.2,2.7c3.2,0,6.1-0.6,8.6-1.9c2.4-1.2,3.7-2.9,4.1-5.1
		c0.6-3.2-2.7-5.6-9.9-7.2c-3.1-0.5-5.4-1.1-6.9-1.6c-9-2.3-14.8-5.1-17.5-8.3c-3-3.2-4-7.5-3.1-12.8c1.2-6.8,4.8-12.3,10.7-16.8
		c6.1-4.1,13.3-6.1,21.9-6.1c9.2,0,16.3,2,21,6.1c4.4,4.4,6.1,10.2,5.2,17.3h-11.5c-3.4,0-5.7-1.5-6.9-4.5c-0.6-0.7-1.2-1.4-1.8-2.1
		c-1.9-1.6-4.6-2.4-8.4-2.4c-3.6,0-6.3,0.5-8.3,1.6c-1.8,1.1-2.9,2.7-3.2,4.8c-0.5,2.8,3.7,5.2,12.6,7.2c1,0.4,1.9,0.6,2.7,0.8
		c0.8,0.2,1.5,0.3,2.2,0.3c8.7,2.3,14.5,5,17.5,8c2.8,3.2,3.7,7.5,2.8,12.8c-1.4,7.8-5.3,13.9-11.7,18.1c-6,3.9-14.4,5.9-25,5.9
		c-10.1,0-17.3-2-21.6-6.1c-4.4-4.1-6-10-4.6-17.9L135.3,69.6z"/>
	<path d="M229.8,10.2L226,31.5c2.5-3.4,5.9-6.1,10-8.3c3.5-1.8,7.6-2.7,12.2-2.7c8.3,0,14.6,3.5,18.7,10.4
		c4.1,6.9,5.2,15.9,3.2,26.9c-1.9,11-6.2,20-12.7,26.9c-3.3,3.4-7.3,5.8-12.1,7.3c-4.8,1.5-9.4,2.3-13.9,2.3c-8.5,0-16-2.2-22.5-6.7
		c-6.5-4.4-8.6-13-6.4-25.6l10.8-61h9.1c2.5,0,4.5,0.9,5.9,2.7C229.7,5.5,230.2,7.7,229.8,10.2z M251.9,57.1
		c1.1-6.4,0.7-11.4-1.4-14.9c-2-3.7-5.3-5.6-9.9-5.6c-5,0-9.1,1.8-12.4,5.3c-3.3,3.7-5.5,8.8-6.7,15.2c-1.3,7.5-1,12.9,0.9,16.3
		c2,3.7,5.4,5.6,10.2,5.6c5,0,9.1-1.9,12.4-5.6C248.3,69.6,250.6,64.2,251.9,57.1z"/>
	<path d="M313,90.1c-4.1,2-8.2,3.2-12.5,3.6c-4.3,0.4-8,0.7-11.2,0.7c-6.4,0-11.7-1.7-15.9-5.2c-4.2-3.5-5.6-9.2-4.2-17.2
		c1.3-7.5,4.4-12.8,9.3-16c4.9-3.2,10.8-5.3,17.8-6.4c0.9,0,2-0.1,3.3-0.4c1.3-0.3,2.8-0.5,4.4-0.7c8-1.1,12.3-3.4,12.9-6.9
		c0.5-2.7-0.6-4.4-3.2-5.2c-2.6-0.8-5.1-1.2-7.4-1.2c-2.5,0-4.8,0.4-6.9,1.1c-2.1,0.7-3.7,2-5,4h-17.9c1.7-5.5,5-10,9.9-13.6
		c5.5-4.1,12.7-6.1,21.6-6.1c9.9,0,17.1,1.7,21.5,5.1c4.5,3.6,6.2,8.5,5.1,14.9l-4.3,24.3c-1.3,7.1-3.5,12.7-6.8,16.7
		C320.4,85.5,316.8,88.3,313,90.1z M314.5,57.3c-2.7,1.2-6.4,2.4-11,3.5l-6.4,1.3c-3.4,0.9-5.9,2-7.5,3.5c-1.6,2-2.6,3.9-2.9,5.9
		c-0.5,2.7,0,4.8,1.3,6.4c1.3,1.4,3.5,2.1,6.6,2.1c5,0,9.1-1.4,12.5-4.3c3.3-2.8,5.5-6.8,6.3-11.7L314.5,57.3z"/>
	<path d="M390,93h-9.3c-2.7,0-4.7-0.8-6.1-2.5c-1.4-1.7-1.9-3.9-1.4-6.5l6.4-36.2c0.8-4.3,0-7.4-2.2-9.3c-2.2-2-4.9-2.9-8.1-2.9
		c-3.2,0-6.2,1-9,2.9c-2.8,2-4.6,5.1-5.4,9.3l-8,45.3h-18.7l7.3-41.6c2.1-12.1,6.7-20.2,13.7-24.3c7-4.1,14.4-6.3,22.1-6.7
		c7.8,0,14.7,2,20.5,6.1c5.9,4.1,7.7,12.4,5.5,24.8L390,93z"/>
	<path d="M446.1,71.2h13.3c-3.3,7.5-8,13.2-14.2,17.1c-6.2,4.1-13.5,6.1-21.9,6.1c-10.1,0-17.5-3.3-22-9.9
		c-4.6-6.4-5.8-15.5-3.7-27.5c2-11.4,6.3-20.3,13-26.7c6.8-6.6,15.3-9.9,25.5-9.9c10.7,0,18.4,3.2,23.1,9.6
		c4.5,6.6,5.8,15.7,3.7,27.5c-0.1,0.7-0.2,1.3-0.3,1.9c-0.1,0.5-0.2,0.9-0.2,1.1c-0.2,0.9-0.4,1.5-0.6,1.9h-46.1
		c-0.8,5.5-0.2,9.6,1.8,12.3c1.8,2.8,5,4.3,9.6,4.3c3,0,5.7-0.6,8.1-1.9c0.6-0.2,1.1-0.5,1.6-0.9c0.5-0.4,1.1-0.9,1.7-1.5
		c0.3-0.5,1.1-1.2,2.4-2.1C442.2,71.6,444,71.2,446.1,71.2z M417.8,50.4H445c0.5-4.8-0.1-8.3-1.9-10.7c-1.9-2.5-4.9-3.7-9.2-3.7
		c-3.9,0-7.3,1.2-10.3,3.7C420.7,42.2,418.8,45.8,417.8,50.4z"/>
</g>
</svg>
